<svg xmlns="http://www.w3.org/2000/svg" width="24" height="24" viewBox="0 0 24 24" version="1.1"><path d="" stroke="none" fill="#080404" fill-rule="evenodd"/><path d="M 3.470 5.048 C 2.099 7.267, 4.815 8.085, 12.595 7.795 C 18.824 7.563, 20.500 7.182, 20.500 6 C 20.500 4.813, 18.797 4.440, 12.333 4.211 C 7.063 4.024, 3.919 4.321, 3.470 5.048 M 3.470 11.048 C 2.099 13.267, 4.815 14.085, 12.595 13.795 C 18.824 13.563, 20.500 13.182, 20.500 12 C 20.500 10.813, 18.797 10.440, 12.333 10.211 C 7.063 10.024, 3.919 10.321, 3.470 11.048 M 11.479 17.034 C 10.298 18.946, 12.528 20.154, 16.618 19.818 C 19.261 19.602, 20.500 19.021, 20.500 18 C 20.500 16.149, 12.552 15.298, 11.479 17.034" stroke="none" fill="#040404" fill-rule="evenodd"/></svg>